<svg xmlns="http://www.w3.org/2000/svg" width="30.513" height="28.605" viewBox="0 0 30.513 28.605">
  <g id="browser" transform="translate(-0.001 -16.013)">
    <path id="Path_841" data-name="Path 841" d="M30.234,29.162,18.376,17.3a4.416,4.416,0,0,0-6.237,0L.28,29.162a.953.953,0,0,0,1.348,1.349l.756-.756V41.877a2.741,2.741,0,0,0,2.741,2.741H9.893a.6.6,0,0,0,.6-.6V35.2a2.98,2.98,0,0,1,2.98-2.98h3.576a2.98,2.98,0,0,1,2.98,2.98v8.82a.6.6,0,0,0,.6.6h4.768a2.741,2.741,0,0,0,2.741-2.741V29.755l.756.756a.953.953,0,0,0,1.348-1.349Z" transform="translate(0 0)" fill="#ef4c66"/>
  </g>
</svg>
