<svg id="question" xmlns="http://www.w3.org/2000/svg" width="22.34" height="30.943" viewBox="0 0 22.34 30.943">
  <g id="Group_237" data-name="Group 237">
    <path id="Path_842" data-name="Path 842" d="M139.822,274.074h-5.8a.992.992,0,0,0-.967.967v5.8a.992.992,0,0,0,.967.967h5.8a.992.992,0,0,0,.967-.967v-5.8a.993.993,0,0,0-.967-.967Z" transform="translate(-126.089 -250.867)" fill="#707070"/>
    <path id="Path_843" data-name="Path 843" d="M72.153,5.838A10.022,10.022,0,0,0,69.59,2.756,13.1,13.1,0,0,0,66.06.749,10.835,10.835,0,0,0,62.168,0,12.348,12.348,0,0,0,50.951,6.431a.954.954,0,0,0-.133.677.94.94,0,0,0,.375.6l3.965,3.022a1.158,1.158,0,0,0,.6.193.94.94,0,0,0,.75-.387A16.49,16.49,0,0,1,59.1,7.76a4.57,4.57,0,0,1,2.611-.7,4.476,4.476,0,0,1,2.6.773,2.185,2.185,0,0,1,1.124,1.789,2.714,2.714,0,0,1-.6,1.837A5.961,5.961,0,0,1,62.8,12.812a10.209,10.209,0,0,0-3.457,2.623,5.632,5.632,0,0,0-1.571,3.783v1.088a1.815,1.815,0,0,0,.254.907.726.726,0,0,0,.617.447h5.8a.842.842,0,0,0,.677-.375,1.265,1.265,0,0,0,.29-.785,3.293,3.293,0,0,1,.664-1.62,4.74,4.74,0,0,1,1.656-1.572q.942-.532,1.474-.858A12.246,12.246,0,0,0,70.593,15.4a6.954,6.954,0,0,0,1.329-1.438,8.164,8.164,0,0,0,1.221-4.291A7.92,7.92,0,0,0,72.153,5.838Z" transform="translate(-50.804 0)" fill="#707070"/>
  </g>
</svg>
