<svg xmlns="http://www.w3.org/2000/svg" width="28.949" height="30.943" viewBox="0 0 28.949 30.943">
  <g id="task" transform="translate(-16.5)">
    <path id="Path_838" data-name="Path 838" d="M263.692,274a7.192,7.192,0,1,0,7.252,7.192A7.2,7.2,0,0,0,263.692,274Zm2.207,6.322-2.417,2.9a.907.907,0,0,1-1.507-.175l-.967-1.934a.907.907,0,0,1,1.622-.811l.347.694,1.53-1.836a.907.907,0,1,1,1.393,1.161Z" transform="translate(-225.495 -257.44)" fill="#707070"/>
    <path id="Path_839" data-name="Path 839" d="M37.806,5.164l-3.678-3.8-.005-.005A4.562,4.562,0,0,0,30.889,0H19.22A2.723,2.723,0,0,0,16.5,2.72v23.51a2.723,2.723,0,0,0,2.72,2.72H30.847a9,9,0,0,1,7.35-14.2q.459,0,.907.045V8.339a4.507,4.507,0,0,0-1.3-3.175Zm-11.7,15.082H21.274a.907.907,0,0,1,0-1.813h4.835a.907.907,0,0,1,0,1.813Zm0-4.835H21.274a.907.907,0,0,1,0-1.813h4.835a.907.907,0,0,1,0,1.813Zm0-4.835H21.274a.907.907,0,1,1,0-1.813h4.835a.907.907,0,0,1,0,1.813Zm5.8,4.835h-.967a.907.907,0,0,1,0-1.813h.967a.907.907,0,0,1,0,1.813Zm0-4.835h-.967a.907.907,0,0,1,0-1.813h.967a.907.907,0,0,1,0,1.813Z" transform="translate(0 0)" fill="#707070"/>
  </g>
</svg>
